<svg width="85" height="92" viewBox="0 0 85 92" fill="none" xmlns="http://www.w3.org/2000/svg">
<g filter="url(#filter0_d)">
<path d="M9.75066 0C9.04292 0 8.51565 0.629183 8.57851 1.39798L14.5447 74.4026C14.6076 75.1716 15.2166 75.9697 15.8988 76.1763L41.2163 83.845C41.8984 84.0515 43.0141 84.0515 43.6963 83.8454L69.0908 76.1642C69.7728 75.9578 70.3827 75.1598 70.4454 74.391L76.4215 1.39798C76.4848 0.629183 75.9569 0 75.2492 0H9.75066ZM63.7156 16.7433C63.6593 17.4291 63.5618 18.6197 63.4989 19.3887L63.3418 21.3041C63.2785 22.0728 63.1884 23.1722 63.1409 23.7469C63.0935 24.3218 63.0485 24.7921 63.0402 24.7921C63.0323 24.7921 62.4465 24.7921 61.7389 24.7921H43.7867C43.0789 24.7921 42.4941 24.7921 42.4864 24.7921C42.4787 24.7921 41.8932 24.7921 41.1855 24.7921H31.7307C31.0229 24.7921 30.4957 25.4213 30.5585 26.1901L31.11 32.9151C31.1729 33.6837 31.8036 34.3131 32.5112 34.3131H41.1856C41.8934 34.3131 42.4787 34.3131 42.4865 34.3131C42.4944 34.3131 43.0792 34.3131 43.7868 34.3131H58.6969C59.4047 34.3131 60.4998 34.3131 61.1306 34.3131C61.7609 34.3131 62.2302 34.8743 62.1731 35.5601C62.1156 36.2459 62.0176 37.4368 61.9549 38.2055L60.1816 59.8864C60.1183 60.6554 60.0383 61.6377 60.0038 62.0695C59.9686 62.501 59.3821 63.0228 58.7001 63.2292L43.74 67.7544C43.058 67.9605 42.4915 68.1311 42.4808 68.1338C42.4703 68.1362 41.9039 67.9692 41.2216 67.763L26.2456 63.2296C25.5636 63.0232 24.9542 62.2252 24.8915 61.4562L23.9275 49.6527C23.8646 48.8837 24.3925 48.2545 25.1002 48.2545H26.467C27.1747 48.2545 28.3327 48.2545 29.0403 48.2545H31.0784C31.7862 48.2545 32.4163 48.8837 32.4796 49.6527L32.8577 54.2733C32.9206 55.0423 33.5307 55.8359 34.2141 56.0372L41.2192 58.1009C41.9021 58.3022 42.4637 58.467 42.4668 58.467C42.47 58.467 43.0313 58.3019 43.7145 58.1006L50.7322 56.0319C51.4151 55.8306 52.0259 55.0367 52.0892 54.2681L52.8502 45.0105C52.9135 44.2415 52.3862 43.6123 51.6785 43.6123H43.7868C43.0791 43.6123 42.4942 43.6123 42.4865 43.6123C42.4789 43.6123 41.8934 43.6123 41.1856 43.6123H24.7187C24.0109 43.6123 23.3808 42.983 23.3179 42.2143L21.4507 19.3889C21.3878 18.6199 21.2904 17.4296 21.234 16.7435C21.1782 16.0577 21.711 15.4964 22.4187 15.4964H41.1856C41.8934 15.4964 42.4787 15.4964 42.4865 15.4964C42.4944 15.4964 43.0792 15.4964 43.7868 15.4964H62.531C63.2386 15.4961 63.7717 16.0572 63.7156 16.7433Z" fill="#DD512A"/>
<rect x="4.5" y="0.5" width="76" height="83" stroke="black"/>
<rect x="4.5" y="0.5" width="76" height="83" stroke="url(#paint0_linear)"/>
</g>
<defs>
<filter id="filter0_d" x="0" y="0" width="85" height="92" filterUnits="userSpaceOnUse" color-interpolation-filters="sRGB">
<feFlood flood-opacity="0" result="BackgroundImageFix"/>
<feColorMatrix in="SourceAlpha" type="matrix" values="0 0 0 0 0 0 0 0 0 0 0 0 0 0 0 0 0 0 127 0"/>
<feOffset dy="4"/>
<feGaussianBlur stdDeviation="2"/>
<feColorMatrix type="matrix" values="0 0 0 0 0 0 0 0 0 0 0 0 0 0 0 0 0 0 0.25 0"/>
<feBlend mode="normal" in2="BackgroundImageFix" result="effect1_dropShadow"/>
<feBlend mode="normal" in="SourceGraphic" in2="effect1_dropShadow" result="shape"/>
</filter>
<linearGradient id="paint0_linear" x1="42.5" y1="0" x2="42.5" y2="84" gradientUnits="userSpaceOnUse">
<stop stop-color="white"/>
<stop offset="1" stop-color="white" stop-opacity="0"/>
</linearGradient>
</defs>
</svg>
